#ifndef MELODY_H
#define MELODY_H

#include "pitches.h"

const int melodyBailey[] = {
	0,//dummy note to avoid the first note being skipped by the program
	0,0,0,0, NOTE_A5, 0, NOTE_A5, 0, NOTE_D6, NOTE_D6, 0,0, NOTE_E6, NOTE_E6, 0,0,
	NOTE_FS6, NOTE_FS6, 0,0, NOTE_E6, NOTE_E6, 0,0, NOTE_D6, NOTE_D6, 0,0, NOTE_E6, NOTE_E6, 0,0,
	NOTE_FS6, NOTE_FS6, NOTE_FS6, NOTE_FS6, 0,0,0,0, NOTE_D6, NOTE_D6, NOTE_D6, NOTE_D6, 0,0,0,0,
	NOTE_D6, NOTE_D6, NOTE_D6, NOTE_D6, NOTE_D6, NOTE_D6, NOTE_D6, NOTE_D6, 0,0,0,0,0,0,0,0,
	0,0,0,0, NOTE_A5, 0, NOTE_A5, 0, NOTE_D6, NOTE_D6, 0,0, NOTE_E6, NOTE_E6, 0,0,
	NOTE_FS6, NOTE_FS6, 0,0, NOTE_E6, NOTE_E6, 0,0, NOTE_D6, NOTE_D6, 0,0, NOTE_E6, NOTE_E6, 0,0,
	NOTE_FS6, NOTE_FS6, NOTE_FS6, NOTE_FS6, 0,0,0,0, NOTE_D6, NOTE_D6, NOTE_D6, NOTE_D6, 0,0,0,0,
	NOTE_D6, NOTE_D6, NOTE_D6, NOTE_D6, NOTE_D6, NOTE_D6, NOTE_D6, NOTE_D6, 0,0,0,0,0,0,0,0,
	0,0,0,0, NOTE_B5, 0, NOTE_B5, 0, NOTE_E6, NOTE_E6, 0,0, NOTE_FS6, NOTE_FS6, 0,0,
	NOTE_E6, NOTE_E6, 0,0, NOTE_B5, NOTE_B5, 0,0, NOTE_G5, NOTE_G5, 0,0, NOTE_B5, NOTE_B5, 0,0,
	NOTE_E6, NOTE_E6, 0,0, NOTE_B5, NOTE_B5, 0,0, NOTE_G5, NOTE_G5, 0,0, NOTE_B5, NOTE_B5, 0,0,
	NOTE_E6, NOTE_E6, NOTE_E6, NOTE_E6, NOTE_E6, NOTE_E6, NOTE_E6, NOTE_E6, 0,0,0,0,0,0,0,0,
	0,0,0,0, NOTE_A5, 0, NOTE_A5, 0, NOTE_D6, NOTE_D6, 0,0, NOTE_E6, NOTE_E6, 0,0,
	NOTE_D6, NOTE_D6, 0,0, NOTE_A5, NOTE_A5, 0,0, NOTE_FS5, NOTE_FS5, 0,0, NOTE_A5, NOTE_A5, 0,0,
	NOTE_D6, NOTE_D6, 0,0, NOTE_A5, NOTE_A5, 0,0, NOTE_FS5, NOTE_FS5, 0,0, NOTE_A5, NOTE_A5, 0,0,
	NOTE_D6, NOTE_D6, NOTE_D6, NOTE_D6, NOTE_D6, NOTE_D6, NOTE_D6, NOTE_D6, 0,0,0,0,0,0,0
};

const int numNotesBailey = sizeof(melodyBailey)/sizeof(melodyBailey[0]);

const int melodyParli[] = {
	0,
	0,0,0,0, NOTE_A5, 0, NOTE_A5, 0, NOTE_D6, NOTE_D6, 0,0, NOTE_E6, NOTE_E6, 0,0,
	NOTE_FS6, NOTE_FS6, 0,0, NOTE_E6, NOTE_E6, 0,0, NOTE_D6, NOTE_D6, 0,0, NOTE_E6, NOTE_E6, 0,0,
	NOTE_FS6, NOTE_FS6, 0,0, NOTE_A5, 0, NOTE_A5, 0, NOTE_D6, NOTE_D6, 0,0, NOTE_E6, NOTE_E6, 0,0,
	NOTE_D6, NOTE_D6, 0,0, NOTE_A5, NOTE_A5, 0,0, NOTE_FS5, NOTE_FS5, 0,0, NOTE_A5, NOTE_A5, 0,0,
	NOTE_D6, NOTE_D6, NOTE_D6, NOTE_D6, NOTE_D6, NOTE_D6, NOTE_D6, NOTE_D6, NOTE_D6, NOTE_D6, NOTE_D6, NOTE_D6, NOTE_D6, NOTE_D6, NOTE_D6, NOTE_D6,
	0,0,0,0,0,0,0,0,0,0,0,0,0,0,0,0,
	NOTE_D5, NOTE_D5, NOTE_D5, NOTE_D5, NOTE_D5, NOTE_D5, NOTE_D5, NOTE_D5, NOTE_D5, NOTE_D5, NOTE_D5, NOTE_D5, NOTE_D5, NOTE_D5, NOTE_D5, NOTE_D5,
	0,0,0,0,0,0,0,0,0,0,0,0,0,0,0,0,
	NOTE_D4, NOTE_D4, NOTE_D4, NOTE_D4, NOTE_D4, NOTE_D4, NOTE_D4, NOTE_D4, NOTE_D4, NOTE_D4, NOTE_D4, NOTE_D4, NOTE_D4, NOTE_D4, NOTE_D4, NOTE_D4,
	NOTE_D4, NOTE_D4, NOTE_D4, NOTE_D4, NOTE_D4, NOTE_D4, NOTE_D4, NOTE_D4, NOTE_D4, NOTE_D4, NOTE_D4, NOTE_D4, NOTE_D4, NOTE_D4, NOTE_D4, NOTE_D4,
	NOTE_D4, NOTE_D4, NOTE_D4, NOTE_D4, NOTE_D4, NOTE_D4, NOTE_D4, NOTE_D4, NOTE_D4, NOTE_D4, NOTE_D4, NOTE_D4, NOTE_D4, NOTE_D4, NOTE_D4, NOTE_D4,
	NOTE_D4, NOTE_D4, NOTE_D4, NOTE_D4, NOTE_D4, NOTE_D4, NOTE_D4, NOTE_D4, NOTE_D4, NOTE_D4, NOTE_D4, NOTE_D4, NOTE_D4, NOTE_D4, NOTE_D4, NOTE_D4,
};

const int numNotesParli = sizeof(melodyParli)/sizeof(melodyParli[0]);

const int melodyDance[] = {
	0,
	NOTE_FS6, NOTE_FS6, NOTE_FS6, NOTE_FS6, 0,0,
	NOTE_E6, NOTE_E6, NOTE_E6, NOTE_E6, 0,0,
	NOTE_B5, 0, NOTE_G5, NOTE_FS5, 0, NOTE_E5,
	NOTE_E5, NOTE_E5, NOTE_E5, NOTE_E5, 0,0,
	0,0, NOTE_E5, NOTE_E5, NOTE_G5, NOTE_E6,
	NOTE_D6, NOTE_D6, 0, NOTE_E5, 0, NOTE_B5,
	NOTE_B5, NOTE_B5, NOTE_B5, 0,0,0,
	0,0,0,0,0
};

const int numNotesDance = sizeof(melodyDance)/sizeof(melodyDance[0]);

#endif